<svg width="56" height="56" viewBox="0 0 56 56" fill="none" xmlns="http://www.w3.org/2000/svg">
<path d="M28 55.6338C23.9495 55.6338 20.4973 54.2068 17.6433 51.3529C14.7875 48.497 13.3595 45.0438 13.3595 40.9933C13.3595 36.9428 14.7875 33.4896 17.6433 30.6337C20.4973 27.7798 23.9495 26.3528 28 26.3528C32.0505 26.3528 35.5037 27.7798 38.3596 30.6337C41.2135 33.4896 42.6405 36.9428 42.6405 40.9933C42.6405 45.0438 41.2135 48.497 38.3596 51.3529C35.5037 54.2068 32.0505 55.6338 28 55.6338ZM28 49.7776C30.4401 49.7776 32.5141 48.9235 34.2222 47.2155C35.9302 45.5074 36.7843 43.4334 36.7843 40.9933C36.7843 38.5532 35.9302 36.4792 34.2222 34.7711C32.5141 33.063 30.4401 32.209 28 32.209C25.5599 32.209 23.4859 33.063 21.7778 34.7711C20.0697 36.4792 19.2157 38.5532 19.2157 40.9933C19.2157 43.4334 20.0697 45.5074 21.7778 47.2155C23.4859 48.9235 25.5599 49.7776 28 49.7776ZM11.2367 24.6692L0.841943 14.2745C0.256325 13.6888 -0.0237958 12.9929 0.00158098 12.1867C0.0250057 11.3825 0.329527 10.7119 0.915146 10.1751C4.67286 6.90542 8.8698 4.39214 13.5059 2.63528C18.1421 0.878428 22.9734 0 28 0C33.0266 0 37.8579 0.878428 42.4941 2.63528C47.1302 4.39214 51.3271 6.90542 55.0849 10.1751C55.6705 10.7119 55.975 11.3825 55.9984 12.1867C56.0238 12.9929 55.7437 13.6888 55.1581 14.2745L44.7633 24.6692C44.2265 25.206 43.5433 25.4988 42.7137 25.5476C41.884 25.5964 41.1276 25.3524 40.4444 24.8156C38.6387 23.4003 36.6867 22.3267 34.5882 21.5947C32.4897 20.8627 30.2937 20.4966 28 20.4966C25.7063 20.4966 23.5103 20.8627 21.4118 21.5947C19.3133 22.3267 17.3613 23.4003 15.5556 24.8156C14.8724 25.3524 14.116 25.5964 13.2863 25.5476C12.4567 25.4988 11.7735 25.206 11.2367 24.6692ZM13.7988 19.0326C15.8484 17.5686 18.0816 16.4705 20.4982 15.7385C22.9129 15.0065 25.4135 14.6405 28 14.6405C30.5865 14.6405 33.0636 14.9948 35.4315 15.7034C37.7974 16.41 40.054 17.471 42.2012 18.8862L48.643 12.4444C45.6174 10.2971 42.3603 8.66227 38.872 7.53984C35.3817 6.4174 31.7577 5.85618 28 5.85618C24.2423 5.85618 20.6193 6.4174 17.1309 7.53984C13.6406 8.66227 10.3826 10.2971 7.35695 12.4444L13.7988 19.0326Z" fill="#F2C335"/>
</svg>
