<svg width="123" height="36" viewBox="0 0 123 36" fill="none" xmlns="http://www.w3.org/2000/svg">
<g clip-path="url(#clip0_1014_2184)">
<path d="M1.05232 1.16516H6.86482V35.2433H1.05232V1.16516ZM3.65388 15.837H15.0445V21.4152H3.65388V15.837ZM3.65388 1.16516H16.2164V6.74329H3.65388V1.16516ZM25.3195 1.16516H29.3976L37.5304 35.2433H31.7648L27.3586 12.9073L22.9523 35.2433H17.1867L25.3195 1.16516ZM22.7179 24.5089H31.9992V29.9464H22.7179V24.5089ZM48.6726 35.5948C46.8914 35.5948 45.3601 35.2667 44.0789 34.6105C42.7976 33.9386 41.8133 32.9777 41.1258 31.7277C40.4539 30.462 40.1179 28.9464 40.1179 27.1808V25.3527L45.907 25.3058V27.1339C45.907 27.9933 46.1492 28.673 46.6336 29.173C47.1179 29.6573 47.7898 29.8995 48.6492 29.8995C49.4929 29.8995 50.1414 29.6573 50.5945 29.173C51.0633 28.6886 51.2976 28.0245 51.2976 27.1808V24.2042C51.2976 23.5792 51.1179 23.0402 50.7586 22.587C50.4148 22.1183 49.9617 21.7198 49.3992 21.3917C48.8523 21.048 48.1023 20.6417 47.1492 20.173C47.0867 20.1417 47.0242 20.1105 46.9617 20.0792C46.9148 20.048 46.8601 20.0167 46.7976 19.9855L46.4929 19.8448C45.2273 19.2042 44.1492 18.5402 43.2586 17.8527C42.3679 17.1495 41.6258 16.2277 41.032 15.087C40.4383 13.9464 40.1414 12.5402 40.1414 10.8683V9.11047C40.1414 7.3761 40.4695 5.89172 41.1258 4.65735C41.7976 3.40735 42.7664 2.45422 44.032 1.79797C45.2976 1.14172 46.8211 0.813599 48.6023 0.813599C50.3367 0.813599 51.8289 1.14172 53.0789 1.79797C54.3289 2.45422 55.282 3.41516 55.9383 4.68079C56.5945 5.93079 56.9226 7.4386 56.9226 9.20422V11.1261L51.1336 11.1964V9.2511C51.1336 8.3761 50.907 7.69641 50.4539 7.21204C50.0164 6.71204 49.3992 6.46204 48.6023 6.46204C47.7586 6.46204 47.1023 6.6886 46.6336 7.14172C46.1804 7.57922 45.9539 8.1886 45.9539 8.96985V11.2433C45.9539 11.8839 46.1179 12.4386 46.4461 12.9073C46.7898 13.3761 47.2117 13.7745 47.7117 14.1027C48.2273 14.4152 48.9383 14.798 49.8445 15.2511C50.0164 15.3292 50.1883 15.4152 50.3601 15.5089C50.5476 15.6027 50.7351 15.6964 50.9226 15.7902C50.9539 15.8058 50.9773 15.8214 50.9929 15.837C51.0242 15.8527 51.0554 15.8683 51.0867 15.8839C52.3836 16.5714 53.4304 17.212 54.2273 17.8058C55.0242 18.3839 55.7039 19.2042 56.2664 20.2667C56.8289 21.3292 57.1101 22.6886 57.1101 24.3448V27.1808C57.1101 28.9464 56.7742 30.462 56.1023 31.7277C55.4461 32.9777 54.4851 33.9386 53.2195 34.6105C51.9539 35.2667 50.4383 35.5948 48.6726 35.5948ZM67.8539 19.4933L74.4867 1.16516H81.0492L67.8539 29.8292V19.4933ZM63.2367 1.16516H69.0492V35.2433H63.2367V1.16516ZM69.9867 16.6339L73.9711 13.1417L82.1273 35.2433H75.7523L69.9867 16.6339ZM86.5898 1.16516H92.4023V35.2433H86.5898V1.16516ZM89.1679 29.5714H101.73V35.2433H89.1679V29.5714ZM89.1679 15.4855H100.559V21.1339H89.1679V15.4855ZM89.1679 1.16516H101.73V6.83704H89.1679V1.16516ZM111.349 4.02454H117.162V35.2433H111.349V4.02454ZM105.724 1.16516H122.787V6.74329H105.724V1.16516Z" fill="#191641"/>
</g>
<defs>
<clipPath id="clip0_1014_2184">
<rect width="123" height="36" fill="white"/>
</clipPath>
</defs>
</svg>
