<svg xmlns="http://www.w3.org/2000/svg" xmlns:xlink="http://www.w3.org/1999/xlink" width="80" height="70" viewBox="0 0 80 70">
  <defs>
    <linearGradient id="linear-gradient" x1="0.5" x2="0" y2="11.519" gradientUnits="objectBoundingBox">
      <stop offset="0" stop-color="#2979ff"/>
      <stop offset="1" stop-color="#124fb5"/>
    </linearGradient>
  </defs>
  <g id="svg" transform="translate(0.001)">
    <path id="Path_1" data-name="Path 1" d="M346.471,474.091l-.171-.237.034-.244" transform="translate(-321.219 -438.685)" fill="url(#linear-gradient)"/>
    <path id="Path_2" data-name="Path 2" d="M101.675,91.095c-.185.006-.37.021-.556.023a44.1,44.1,0,0,1-5.1-.251c-.76-.082-1.517-.181-2.273-.291-1.1-.159-2.192-.36-3.277-.594a66.31,66.31,0,0,1-6.992-1.926,84.719,84.719,0,0,1-10.908-4.541,105.808,105.808,0,0,1-15.682-9.621A102.984,102.984,0,0,1,44.9,63.593a76.412,76.412,0,0,1-7.725-8.99A49.482,49.482,0,0,1,32.9,47.662a31.468,31.468,0,0,1-2.238-5.7,19.988,19.988,0,0,1-.712-4.063,14.99,14.99,0,0,1,.105-3.1,11.985,11.985,0,0,1,5.665-8.645A17.921,17.921,0,0,1,42.6,23.775c.458-.069.918-.121,1.376-.165.507-.049,1.014-.105,1.521-.112q2.294-.029,4.585.116c.89.058,1.78.117,2.665.221.862.1,1.726.186,2.585.31q.341.05.682.106c.689.112,1.79.307,1.987.341l.082.014.187.027a11.314,11.314,0,0,0-1.21-.352c-.451-.115-.963-.215-1.291-.277-.762-.142-1.593-.257-2.358-.375q-.907-.142-1.819-.256c-.494-.063-.989-.111-1.485-.157-.392-.038-.785-.067-1.178-.092q-1.039-.069-2.08-.126c-.232-.013-.464-.012-.695-.024-.039,0-.39,0-.749,0h-.8c-.267.013-.533.011-.8.027-.624.038-1.249.074-1.872.128-.553.046-1.107.1-1.657.175-.7.1-1.4.211-2.089.348a27.926,27.926,0,0,0-4.273,1.192,20.307,20.307,0,0,0-5.577,3.04,16.26,16.26,0,0,0-5.995,9.534,16.084,16.084,0,0,0-.359,2.445c0,.046-.045.737-.046,1.41s.038,1.335.04,1.376a25.887,25.887,0,0,0,1.738,7.575,38.989,38.989,0,0,0,3.172,6.436,57.093,57.093,0,0,0,5.778,7.865,76.652,76.652,0,0,0,8.358,8.236,91.733,91.733,0,0,0,20.94,13.382A80.326,80.326,0,0,0,72.314,90.1c2.072.631,4.165,1.175,6.288,1.607,1.032.21,2.066.411,3.108.56.779.111,1.557.23,2.339.326.586.074,1.175.116,1.764.164.669.056,1.339.1,2.009.156.041,0,1.2.04,2.377.038,1.209,0,2.436-.045,2.5-.051.784-.074,1.569-.137,2.353-.207.842-.074,1.675-.213,2.509-.351a25.346,25.346,0,0,0,4.375-1.254C101.853,91.094,101.761,91.092,101.675,91.095Z" transform="translate(-21.94 -22.97)" fill="url(#linear-gradient)"/>
    <path id="Path_3" data-name="Path 3" d="M364.576,104.757c-1.649.9-3.269,1.843-4.868,2.825a105.791,105.791,0,0,0-15.2,11.279q-3.445,3.082-6.574,6.485c-.077.085-.146.175-.23.272a92.281,92.281,0,0,0,8.087,7.454c2.787,2.287,8.728,6.417,8.771,6.411-.063-.063-.112-.122-.169-.171-.644-.539-1.278-1.094-1.937-1.611a22.338,22.338,0,0,1-2.632-2.406,7.692,7.692,0,0,1-1.654-2.652,4.78,4.78,0,0,1,1.283-5.3q2.5-2.373,5.177-4.552a105.649,105.649,0,0,1,10.584-7.612c.788-.5,1.589-.976,2.379-1.471a7.888,7.888,0,0,0,2.694-2.791,7.335,7.335,0,0,0,1-3.843,14.39,14.39,0,0,0-.178-1.843,14.868,14.868,0,0,0-1.687-4.969,17.489,17.489,0,0,0-3.213-4.167,19.373,19.373,0,0,0-4.066-3.066,6.466,6.466,0,0,0-1.312-.594l.3.155a14.453,14.453,0,0,1,5.494,4.808,4.765,4.765,0,0,1,.812,2.244,4.9,4.9,0,0,1-.664,3.022A5.534,5.534,0,0,1,364.576,104.757Z" transform="translate(-314.941 -87.365)" fill="url(#linear-gradient)"/>
    <path id="Path_4" data-name="Path 4" d="M227.334,93.911c-.079.6-.154,1.2-.234,1.8-.083.623-.171,1.246-.254,1.87s-.158,1.225-.238,1.837q-.161,1.231-.323,2.46c-.081.624-.16,1.248-.242,1.872q-.16,1.213-.32,2.425-.155,1.179-.307,2.357-.127.971-.256,1.94l-.243,1.837-.241,1.836q-.125.952-.25,1.906c-.055.416-.109.831-.166,1.247a.583.583,0,0,0,.137.481q1.509,1.886,3.135,3.67c.061.068.13.13.228.226.174-.184.319-.334.464-.49q3.058-3.316,6.42-6.33c.433-.389.867-.777,1.309-1.155.021-.018.042-.037.061-.055l.2-.186.031-.284c.1-.833.219-1.663.326-2.5.079-.6.156-1.2.236-1.8.1-.8.214-1.593.318-2.39s.2-1.595.309-2.392.214-1.594.32-2.39q.164-1.23.327-2.46.157-1.2.311-2.391c.079-.613.151-1.226.241-1.837a5.46,5.46,0,0,0-.112-2.287,4.753,4.753,0,0,0-4.53-3.556c-.084,0-.8-.036-1.61-.028-.656.006-1.372.049-1.814.086a15.749,15.749,0,0,0-2.274.365,11.679,11.679,0,0,0-3.584,1.433,9.547,9.547,0,0,0-4.6,7.7,9.152,9.152,0,0,0,.079,1.987,10.085,10.085,0,0,0,.637,2.414q.005.013.012.026a1.143,1.143,0,0,0,.129.182,11.54,11.54,0,0,1-.452-2.074,10.856,10.856,0,0,1,.054-2.893,11.036,11.036,0,0,1,.753-2.575,9,9,0,0,1,4.2-4.608,3.322,3.322,0,0,1,.473-.223,1.1,1.1,0,0,1,1.117.187,1.161,1.161,0,0,1,.438.915,3.638,3.638,0,0,1-.035.487C227.455,93.01,227.392,93.46,227.334,93.911Z" transform="translate(-205.767 -84.321)" fill="url(#linear-gradient)"/>
    <path id="Path_5" data-name="Path 5" d="M176.952,614.7c-.292-.206-.587-.411-.879-.618q-.641-.456-1.276-.92t-1.259-.943q-.626-.477-1.243-.965t-1.224-.989q-.608-.5-1.208-1.01t-1.188-1.032q-.589-.521-1.167-1.053t-1.151-1.077q-.569-.545-1.125-1.1t-1.1-1.123c-.365-.378-.72-.763-1.08-1.145s-.687-.777-1.068-1.133a.445.445,0,0,0,.073.186,19.808,19.808,0,0,0,1.8,2.351c.146.16.292.322.42.493A9.828,9.828,0,0,1,166.378,612c-.109.948-.292,1.887-.437,2.83s-.3,1.909-.456,2.864q-.195,1.224-.39,2.449l-.382,2.415q-.191,1.208-.385,2.414c-.1.621-.206,1.24-.3,1.863A1.459,1.459,0,0,0,165,628.5a1.64,1.64,0,0,0,.422.12h8.19a2.3,2.3,0,0,0,.51-.146,2.1,2.1,0,0,0,1.385-1.622c.081-.423.139-.851.206-1.276q.384-2.415.769-4.829c.27-1.69.819-5.128.825-5.155s.008-.05.011-.073l.073-.5Z" transform="translate(-151.769 -558.622)" fill="url(#linear-gradient)"/>
  </g>
</svg>
