<svg width="60" height="60" viewBox="0 0 60 60" fill="none" xmlns="http://www.w3.org/2000/svg">
<path d="M24.975 6.951C26.253 1.683 33.747 1.683 35.025 6.951C35.2168 7.7424 35.5927 8.47734 36.1221 9.096C36.6516 9.71466 37.3197 10.1996 38.072 10.5112C38.8242 10.8229 39.6395 10.9526 40.4514 10.8896C41.2632 10.8267 42.0487 10.5729 42.744 10.149C47.373 7.329 52.674 12.627 49.854 17.259C49.4307 17.954 49.1773 18.739 49.1145 19.5503C49.0517 20.3616 49.1813 21.1763 49.4926 21.9281C49.8039 22.68 50.2882 23.3477 50.9062 23.8772C51.5241 24.4066 52.2583 24.7827 53.049 24.975C58.317 26.253 58.317 33.747 53.049 35.025C52.2576 35.2168 51.5227 35.5927 50.904 36.1221C50.2853 36.6516 49.8004 37.3197 49.4888 38.072C49.1771 38.8242 49.0474 39.6395 49.1104 40.4514C49.1733 41.2632 49.4271 42.0487 49.851 42.744C52.671 47.373 47.373 52.674 42.741 49.854C42.046 49.4307 41.261 49.1773 40.4497 49.1145C39.6384 49.0517 38.8237 49.1813 38.0719 49.4926C37.32 49.8039 36.6523 50.2882 36.1228 50.9062C35.5934 51.5241 35.2173 52.2583 35.025 53.049C33.747 58.317 26.253 58.317 24.975 53.049C24.7832 52.2576 24.4073 51.5227 23.8779 50.904C23.3484 50.2853 22.6803 49.8004 21.928 49.4888C21.1758 49.1771 20.3605 49.0474 19.5486 49.1104C18.7368 49.1733 17.9513 49.4271 17.256 49.851C12.627 52.671 7.326 47.373 10.146 42.741C10.5693 42.046 10.8227 41.261 10.8855 40.4497C10.9483 39.6384 10.8187 38.8237 10.5074 38.0719C10.1961 37.32 9.71178 36.6523 9.09382 36.1228C8.47586 35.5934 7.74169 35.2173 6.951 35.025C1.683 33.747 1.683 26.253 6.951 24.975C7.7424 24.7832 8.47734 24.4073 9.096 23.8779C9.71466 23.3484 10.1996 22.6803 10.5112 21.928C10.8229 21.1758 10.9526 20.3605 10.8896 19.5486C10.8267 18.7368 10.5729 17.9513 10.149 17.256C7.329 12.627 12.627 7.326 17.259 10.146C20.259 11.97 24.147 10.356 24.975 6.951Z" stroke="#F2C335" stroke-width="5" stroke-linecap="round" stroke-linejoin="round"/>
<path d="M30 39C34.9706 39 39 34.9706 39 30C39 25.0294 34.9706 21 30 21C25.0294 21 21 25.0294 21 30C21 34.9706 25.0294 39 30 39Z" stroke="#F2C335" stroke-width="5" stroke-linecap="round" stroke-linejoin="round"/>
</svg>
