<svg width="54" height="54" viewBox="0 0 54 54" fill="none" xmlns="http://www.w3.org/2000/svg">
<path d="M27 0C23.9485 0 20.9656 0.90487 18.4283 2.60018C15.8911 4.2955 13.9136 6.70511 12.7459 9.52431C11.5781 12.3435 11.2726 15.4457 11.8679 18.4385C12.4632 21.4314 13.9326 24.1805 16.0904 26.3382C18.2481 28.4959 20.9972 29.9654 23.99 30.5607C26.9829 31.156 30.0851 30.8505 32.9043 29.6827C35.7235 28.515 38.1331 26.5374 39.8284 24.0002C41.5237 21.463 42.4286 18.4801 42.4286 15.4286C42.4235 11.3382 40.7963 7.41687 37.904 4.52456C35.0117 1.63225 31.0903 0.00510337 27 0ZM38.3979 13.5H33.696C33.5997 10.6378 33.0858 7.80504 32.1705 5.09143C33.7952 5.90643 35.2054 7.09218 36.2872 8.55288C37.369 10.0136 38.092 11.7083 38.3979 13.5ZM27.0424 26.9981H27.027C26.2941 26.7666 24.5025 23.4861 24.1746 17.3571H29.8254C29.4975 23.4823 27.7155 26.7628 27.0424 26.9981ZM24.1746 13.5C24.5025 7.37486 26.2845 4.09436 26.9576 3.85907H26.973C27.7059 4.0905 29.4975 7.371 29.8254 13.5H24.1746ZM21.8314 5.09143C20.9155 7.80494 20.4009 10.6377 20.304 13.5H15.6021C15.9082 11.7081 16.6315 10.0133 17.7136 8.55256C18.7958 7.09185 20.2064 5.9062 21.8314 5.09143ZM15.6021 17.3571H20.3021C20.399 20.2194 20.9136 23.0522 21.8295 25.7657C20.2048 24.9507 18.7946 23.765 17.7128 22.3043C16.631 20.8436 15.908 19.1489 15.6021 17.3571ZM32.1686 25.7657C33.0845 23.0522 33.5991 20.2194 33.696 17.3571H38.3979C38.0918 19.1491 37.3685 20.8439 36.2864 22.3046C35.2042 23.7653 33.7936 24.9509 32.1686 25.7657ZM50.1429 54H3.85714C2.83448 53.999 1.85399 53.5923 1.13086 52.8691C0.407725 52.146 0.00102113 51.1655 0 50.1429V38.5714C0.00102113 37.5488 0.407725 36.5683 1.13086 35.8451C1.85399 35.122 2.83448 34.7153 3.85714 34.7143H50.1429C51.1655 34.7153 52.146 35.122 52.8691 35.8451C53.5923 36.5683 53.999 37.5488 54 38.5714V50.1429C53.999 51.1655 53.5923 52.146 52.8691 52.8691C52.146 53.5923 51.1655 53.999 50.1429 54ZM3.85714 38.5714V50.1429H50.1429V38.5714H3.85714Z" fill="#F2C335"/>
<path d="M9.64286 46.2857C10.708 46.2857 11.5714 45.4223 11.5714 44.3571C11.5714 43.292 10.708 42.4286 9.64286 42.4286C8.57774 42.4286 7.71429 43.292 7.71429 44.3571C7.71429 45.4223 8.57774 46.2857 9.64286 46.2857Z" fill="#F2C335"/>
</svg>
