<svg width="64" height="48" viewBox="0 0 64 48" fill="none" xmlns="http://www.w3.org/2000/svg">
<path d="M44.0679 31.5515C44.3848 31.8562 44.6383 32.2204 44.814 32.6233C44.9898 33.0262 45.0842 33.4599 45.092 33.8994C45.0997 34.3389 45.0206 34.7755 44.8592 35.1844C44.6978 35.5933 44.4573 35.9662 44.1514 36.2819C43.84 36.6026 43.4682 36.8587 43.0576 37.0353C42.6469 37.212 42.2054 37.3059 41.7584 37.3114C40.8884 37.2995 40.0544 36.962 39.421 36.3654C37.4184 34.4567 34.758 33.392 31.9916 33.392C29.2251 33.392 26.5647 34.4567 24.5621 36.3654C24.246 36.6705 23.8729 36.9104 23.4641 37.0713C23.0553 37.2322 22.6189 37.3111 22.1796 37.3033C21.7403 37.2956 21.3069 37.2014 20.9041 37.0261C20.5012 36.8508 20.1368 36.598 19.8317 36.2819C19.5266 35.9658 19.2867 35.5927 19.1258 35.1839C18.9648 34.7751 18.886 34.3387 18.8937 33.8994C18.9015 33.4602 18.9957 33.0267 19.1709 32.6239C19.3462 32.221 19.5991 31.8566 19.9152 31.5515C23.1669 28.4423 27.4926 26.7071 31.9916 26.7071C36.4905 26.7071 40.8162 28.4423 44.0679 31.5515ZM31.9916 13.3535C23.9327 13.3237 16.1897 16.4849 10.4544 22.1464C10.1403 22.4505 9.88954 22.8139 9.71658 23.2155C9.54363 23.617 9.45192 24.0489 9.44675 24.4861C9.44158 24.9233 9.52304 25.3572 9.68644 25.7627C9.84984 26.1683 10.0919 26.5375 10.3988 26.849C10.7053 27.1639 11.071 27.4153 11.4749 27.5886C11.8788 27.7619 12.3129 27.8538 12.7524 27.859C13.1919 27.8641 13.6281 27.7825 14.0359 27.6187C14.4438 27.455 14.8153 27.2123 15.1291 26.9046C19.6365 22.4993 25.6889 20.0328 31.9916 20.0328C38.2942 20.0328 44.3466 22.4993 48.854 26.9046C49.4778 27.5159 50.3179 27.8559 51.1913 27.8507C51.6366 27.8503 52.0774 27.7615 52.4882 27.5895C52.8989 27.4176 53.2715 27.1659 53.5843 26.849C53.8912 26.5375 54.1333 26.1683 54.2967 25.7627C54.4601 25.3572 54.5415 24.9233 54.5364 24.4861C54.5312 24.0489 54.4395 23.617 54.2665 23.2155C54.0936 22.8139 53.8428 22.4505 53.5287 22.1464C47.7934 16.4849 40.0504 13.3237 31.9916 13.3535ZM62.9894 12.6856C54.7201 4.55577 43.5879 0 31.9916 0C20.3952 0 9.26296 4.55577 0.993664 12.6856C0.362687 13.3092 0.00527628 14.158 5.79496e-05 15.0451C-0.00516038 15.9322 0.342241 16.785 0.965838 17.416C1.58944 18.047 2.43815 18.4044 3.32526 18.4096C4.21238 18.4148 5.06524 18.0674 5.69622 17.4438C12.7077 10.5411 22.1524 6.67215 31.9916 6.67215C41.8307 6.67215 51.2754 10.5411 58.2869 17.4438C58.9079 18.0628 59.7475 18.4126 60.6242 18.4177C61.2916 18.4251 61.9459 18.2322 62.5026 17.8641C63.0594 17.496 63.493 16.9695 63.7476 16.3525C64.0021 15.7355 64.066 15.0564 63.9308 14.4028C63.7957 13.7492 63.4678 13.1511 62.9894 12.6856ZM31.9916 38.9532C31.111 38.9532 30.2502 39.2143 29.5181 39.7035C28.7859 40.1927 28.2153 40.888 27.8783 41.7015C27.5414 42.515 27.4532 43.4102 27.625 44.2738C27.7968 45.1375 28.2208 45.9308 28.8434 46.5534C29.4661 47.176 30.2594 47.6001 31.123 47.7719C31.9866 47.9436 32.8818 47.8555 33.6953 47.5185C34.5088 47.1815 35.2041 46.6109 35.6934 45.8787C36.1826 45.1466 36.4437 44.2858 36.4437 43.4053C36.4437 42.2245 35.9746 41.0921 35.1397 40.2571C34.3047 39.4222 33.1723 38.9532 31.9916 38.9532Z" fill="#F2C335"/>
</svg>
